<?xml version="1.0" encoding="utf-8"?>
<!-- Generator: Adobe Illustrator 16.0.0, SVG Export Plug-In . SVG Version: 6.00 Build 0)  -->
<!DOCTYPE svg PUBLIC "-//W3C//DTD SVG 1.1//EN" "http://www.w3.org/Graphics/SVG/1.1/DTD/svg11.dtd">
<svg version="1.1" id="Layer_1" xmlns="http://www.w3.org/2000/svg" xmlns:xlink="http://www.w3.org/1999/xlink" x="0px" y="0px"
	 width="377.5px" height="138.9px" viewBox="0 0 377.5 138.9" enable-background="new 0 0 377.5 138.9" xml:space="preserve">
<g>
	<polygon fill="#043F85" points="66.3,104.7 66.3,88.5 60.3,88.5 60.3,86.3 74.9,86.3 74.9,88.5 68.8,88.5 68.8,104.7 	"/>
	<path fill="#043F85" d="M76.1,104.7V91.4h2v2c0.5-0.9,1-1.6,1.4-1.9c0.4-0.3,0.9-0.5,1.5-0.5c0.8,0,1.5,0.2,2.3,0.7l-0.8,2.1
		c-0.5-0.3-1.1-0.5-1.7-0.5c-0.5,0-0.9,0.2-1.3,0.4c-0.4,0.3-0.7,0.7-0.8,1.2c-0.3,0.8-0.4,1.7-0.4,2.6v7H76.1z"/>
	<path fill="#043F85" d="M84.8,91.4H87v13.4h-2.3V91.4z M84.8,86.3H87v2.6h-2.3V86.3z"/>
	<path fill="#043F85" d="M99.2,104.7v-2c-1,1.5-2.5,2.3-4.2,2.3c-0.8,0-1.5-0.2-2.2-0.5c-0.7-0.3-1.2-0.7-1.5-1.1
		c-0.3-0.5-0.6-1-0.7-1.7c-0.1-0.4-0.1-1.2-0.1-2.1v-8.3h2.3v7.4c0,1.2,0,2,0.1,2.4c0.1,0.6,0.4,1.1,0.9,1.4c0.5,0.3,1,0.5,1.7,0.5
		c0.7,0,1.3-0.2,1.9-0.5c0.6-0.3,1-0.8,1.3-1.4c0.3-0.6,0.4-1.5,0.4-2.6v-7.2h2.3v13.4H99.2z"/>
	<path fill="#043F85" d="M104.8,104.7V91.4h2v1.9c0.4-0.6,1-1.2,1.7-1.6c0.7-0.4,1.5-0.6,2.4-0.6c1,0,1.8,0.2,2.4,0.6
		c0.6,0.4,1.1,1,1.3,1.7c1.1-1.6,2.4-2.3,4.1-2.3c1.3,0,2.3,0.4,3.1,1.1c0.7,0.7,1.1,1.9,1.1,3.4v9.2h-2.3v-8.4c0-0.9-0.1-1.6-0.2-2
		c-0.1-0.4-0.4-0.7-0.8-1c-0.4-0.2-0.8-0.4-1.4-0.4c-0.9,0-1.7,0.3-2.3,0.9c-0.6,0.6-0.9,1.6-0.9,3v7.8h-2.3v-8.7
		c0-1-0.2-1.8-0.6-2.3c-0.4-0.5-1-0.8-1.8-0.8c-0.6,0-1.2,0.2-1.8,0.5c-0.5,0.3-0.9,0.8-1.2,1.5c-0.2,0.6-0.4,1.6-0.4,2.8v6.9H104.8
		z"/>
	<path fill="#043F85" d="M128.3,98.1c0,1.7,0.3,3,1,3.8c0.7,0.8,1.5,1.2,2.5,1.2c1,0,1.9-0.4,2.6-1.3c0.7-0.9,1.1-2.2,1.1-4
		c0-1.7-0.4-3-1-3.8c-0.7-0.8-1.5-1.3-2.5-1.3c-1,0-1.8,0.5-2.6,1.4C128.7,95.1,128.3,96.4,128.3,98.1 M126.3,109.9V91.4h2.1v1.7
		c0.5-0.7,1-1.2,1.7-1.5c0.6-0.3,1.4-0.5,2.2-0.5c1.1,0,2.1,0.3,3,0.9c0.9,0.6,1.5,1.4,2,2.5c0.4,1.1,0.7,2.2,0.7,3.5
		c0,1.4-0.2,2.6-0.7,3.7c-0.5,1.1-1.2,1.9-2.1,2.5c-0.9,0.6-1.9,0.9-3,0.9c-0.8,0-1.4-0.2-2-0.5c-0.6-0.3-1.1-0.7-1.5-1.2v6.5H126.3
		z"/>
	<path fill="#043F85" d="M140.6,104.7V86.3h2.3v6.6c1.1-1.2,2.4-1.8,4-1.8c1,0,1.8,0.2,2.6,0.6c0.7,0.4,1.3,0.9,1.6,1.6
		c0.3,0.7,0.5,1.7,0.5,3v8.5h-2.3v-8.5c0-1.1-0.2-2-0.7-2.5c-0.5-0.5-1.2-0.8-2.1-0.8c-0.7,0-1.3,0.2-1.9,0.5
		c-0.6,0.3-1,0.8-1.3,1.4c-0.3,0.6-0.4,1.4-0.4,2.5v7.3H140.6z"/>
	<path fill="#043F85" d="M163.5,98c-0.8,0.3-2.1,0.6-3.7,0.9c-0.9,0.1-1.6,0.3-2,0.5c-0.4,0.2-0.7,0.4-0.9,0.7
		c-0.2,0.3-0.3,0.7-0.3,1.1c0,0.6,0.2,1.1,0.7,1.5c0.5,0.4,1.1,0.6,2,0.6c0.9,0,1.7-0.2,2.3-0.6s1.2-0.9,1.5-1.6
		c0.2-0.5,0.4-1.3,0.4-2.3V98z M163.7,103.1c-0.8,0.7-1.7,1.2-2.4,1.5c-0.8,0.3-1.6,0.4-2.5,0.4c-1.5,0-2.6-0.4-3.4-1.1
		c-0.8-0.7-1.2-1.6-1.2-2.8c0-0.7,0.1-1.3,0.4-1.8c0.3-0.5,0.7-1,1.2-1.3c0.5-0.3,1-0.6,1.6-0.7c0.4-0.1,1.1-0.2,2-0.3
		c1.8-0.2,3.2-0.5,4-0.8c0-0.3,0-0.5,0-0.6c0-0.9-0.2-1.6-0.6-1.9c-0.6-0.5-1.4-0.8-2.6-0.8c-1.1,0-1.9,0.2-2.4,0.6
		c-0.5,0.4-0.9,1-1.1,2l-2.2-0.3c0.2-0.9,0.5-1.7,1-2.3c0.5-0.6,1.1-1,2-1.4c0.9-0.3,1.9-0.5,3-0.5c1.1,0,2.1,0.1,2.8,0.4
		c0.7,0.3,1.2,0.6,1.6,1c0.3,0.4,0.6,0.9,0.7,1.5c0.1,0.4,0.1,1.1,0.1,2.1v3c0,2.1,0,3.4,0.1,4c0.1,0.6,0.3,1.1,0.6,1.6h-2.4
		C163.9,104.3,163.8,103.7,163.7,103.1z"/>
	<path fill="#043F85" d="M169.3,104.7V91.4h2v1.9c1-1.5,2.4-2.2,4.3-2.2c0.8,0,1.5,0.2,2.2,0.4c0.7,0.3,1.2,0.7,1.5,1.1
		c0.3,0.5,0.6,1,0.7,1.7c0.1,0.4,0.1,1.2,0.1,2.2v8.2h-2.3v-8.1c0-0.9-0.1-1.6-0.3-2.1c-0.2-0.5-0.5-0.8-0.9-1.1
		c-0.4-0.3-1-0.4-1.6-0.4c-1,0-1.8,0.3-2.5,0.9c-0.7,0.6-1,1.8-1,3.5v7.3H169.3z"/>
	<path fill="#043F85" d="M188.6,102.7l0.3,2c-0.6,0.1-1.2,0.2-1.7,0.2c-0.8,0-1.5-0.1-1.9-0.4c-0.5-0.3-0.8-0.6-1-1
		c-0.2-0.4-0.3-1.3-0.3-2.7v-7.7h-1.7v-1.8h1.7v-3.3l2.3-1.4v4.7h2.3v1.8h-2.3v7.8c0,0.6,0,1.1,0.1,1.2c0.1,0.2,0.2,0.3,0.4,0.4
		c0.2,0.1,0.4,0.2,0.8,0.2C187.9,102.8,188.2,102.8,188.6,102.7"/>
	<rect x="198.7" y="86.3" fill="#043F85" width="2.4" height="18.5"/>
	<path fill="#043F85" d="M205.2,104.7V91.4h2v1.9c1-1.5,2.4-2.2,4.3-2.2c0.8,0,1.5,0.2,2.2,0.4c0.7,0.3,1.2,0.7,1.5,1.1
		c0.3,0.5,0.6,1,0.7,1.7c0.1,0.4,0.1,1.2,0.1,2.2v8.2h-2.3v-8.1c0-0.9-0.1-1.6-0.3-2.1c-0.2-0.5-0.5-0.8-0.9-1.1
		c-0.5-0.3-1-0.4-1.6-0.4c-1,0-1.8,0.3-2.5,0.9c-0.7,0.6-1,1.8-1,3.5v7.3H205.2z"/>
	<path fill="#043F85" d="M218.6,100.8l2.2-0.3c0.1,0.9,0.5,1.6,1,2.1c0.6,0.5,1.4,0.7,2.4,0.7c1,0,1.8-0.2,2.3-0.6
		c0.5-0.4,0.8-0.9,0.8-1.5c0-0.5-0.2-0.9-0.7-1.2c-0.3-0.2-1.1-0.5-2.3-0.8c-1.7-0.4-2.8-0.8-3.5-1.1c-0.6-0.3-1.1-0.7-1.5-1.3
		c-0.3-0.5-0.5-1.1-0.5-1.8c0-0.6,0.1-1.1,0.4-1.7c0.3-0.5,0.6-0.9,1.1-1.3c0.3-0.3,0.8-0.5,1.4-0.7c0.6-0.2,1.3-0.3,2-0.3
		c1,0,2,0.2,2.8,0.5c0.8,0.3,1.4,0.7,1.8,1.2c0.4,0.5,0.6,1.2,0.8,2.1l-2.2,0.3c-0.1-0.7-0.4-1.2-0.9-1.6c-0.5-0.4-1.2-0.6-2.1-0.6
		c-1,0-1.8,0.2-2.2,0.5c-0.4,0.3-0.7,0.8-0.7,1.2c0,0.3,0.1,0.6,0.3,0.8c0.2,0.2,0.5,0.4,0.9,0.6c0.2,0.1,0.9,0.3,2,0.6
		c1.6,0.4,2.7,0.8,3.4,1.1c0.6,0.3,1.1,0.7,1.5,1.2c0.4,0.5,0.5,1.2,0.5,1.9c0,0.8-0.2,1.5-0.7,2.1c-0.4,0.7-1.1,1.2-1.9,1.5
		c-0.8,0.4-1.8,0.5-2.8,0.5c-1.7,0-3.1-0.4-4-1.1C219.4,103.2,218.9,102.2,218.6,100.8"/>
	<path fill="#043F85" d="M237.4,102.7l0.3,2c-0.6,0.1-1.2,0.2-1.7,0.2c-0.8,0-1.5-0.1-1.9-0.4c-0.5-0.3-0.8-0.6-1-1
		c-0.2-0.4-0.3-1.3-0.3-2.7v-7.7h-1.7v-1.8h1.7v-3.3l2.3-1.4v4.7h2.3v1.8h-2.3v7.8c0,0.6,0,1.1,0.1,1.2c0.1,0.2,0.2,0.3,0.4,0.4
		c0.2,0.1,0.4,0.2,0.8,0.2C236.6,102.8,236.9,102.8,237.4,102.7"/>
	<path fill="#043F85" d="M239.6,91.4h2.3v13.4h-2.3V91.4z M239.6,86.3h2.3v2.6h-2.3V86.3z"/>
	<path fill="#043F85" d="M250.3,102.7l0.3,2c-0.6,0.1-1.2,0.2-1.7,0.2c-0.8,0-1.5-0.1-1.9-0.4c-0.5-0.3-0.8-0.6-1-1
		c-0.2-0.4-0.3-1.3-0.3-2.7v-7.7h-1.7v-1.8h1.7v-3.3l2.3-1.4v4.7h2.3v1.8H248v7.8c0,0.6,0,1.1,0.1,1.2c0.1,0.2,0.2,0.3,0.4,0.4
		c0.2,0.1,0.4,0.2,0.8,0.2C249.5,102.8,249.8,102.8,250.3,102.7"/>
	<path fill="#043F85" d="M261.2,104.7v-2c-1,1.5-2.5,2.3-4.2,2.3c-0.8,0-1.5-0.2-2.2-0.5c-0.7-0.3-1.2-0.7-1.5-1.1
		c-0.3-0.5-0.6-1-0.7-1.7c-0.1-0.4-0.1-1.2-0.1-2.1v-8.3h2.3v7.4c0,1.2,0,2,0.1,2.4c0.1,0.6,0.4,1.1,0.9,1.4c0.5,0.3,1,0.5,1.7,0.5
		c0.7,0,1.3-0.2,1.9-0.5c0.6-0.3,1-0.8,1.3-1.4c0.3-0.6,0.4-1.5,0.4-2.6v-7.2h2.3v13.4H261.2z"/>
	<path fill="#043F85" d="M271.8,102.7l0.3,2c-0.6,0.1-1.2,0.2-1.7,0.2c-0.8,0-1.5-0.1-1.9-0.4c-0.5-0.3-0.8-0.6-1-1
		c-0.2-0.4-0.3-1.3-0.3-2.7v-7.7h-1.7v-1.8h1.7v-3.3l2.3-1.4v4.7h2.3v1.8h-2.3v7.8c0,0.6,0,1.1,0.1,1.2c0.1,0.2,0.2,0.3,0.4,0.4
		c0.2,0.1,0.4,0.2,0.8,0.2C271,102.8,271.4,102.8,271.8,102.7"/>
	<path fill="#043F85" d="M275.7,96.8h7.5c-0.1-1.1-0.4-2-0.9-2.5c-0.7-0.9-1.7-1.3-2.8-1.3c-1,0-1.9,0.3-2.6,1
		C276.2,94.7,275.8,95.6,275.7,96.8 M283.1,100.4l2.3,0.3c-0.4,1.4-1.1,2.4-2,3.2c-1,0.8-2.3,1.1-3.8,1.1c-2,0-3.5-0.6-4.6-1.8
		c-1.1-1.2-1.7-2.9-1.7-5.1c0-2.3,0.6-4,1.7-5.2c1.2-1.2,2.7-1.9,4.5-1.9c1.8,0,3.3,0.6,4.4,1.8c1.1,1.2,1.7,2.9,1.7,5.1
		c0,0.1,0,0.3,0,0.6h-10c0.1,1.5,0.5,2.6,1.3,3.4c0.7,0.8,1.7,1.2,2.8,1.2c0.8,0,1.5-0.2,2.1-0.7
		C282.3,102.1,282.8,101.4,283.1,100.4z"/>
	<path fill="#043F85" d="M297,98.1c0,1.7,0.4,3,1.1,3.8c0.7,0.9,1.7,1.3,2.8,1.3c1.1,0,2.1-0.4,2.8-1.3c0.7-0.9,1.1-2.2,1.1-3.9
		c0-1.7-0.4-2.9-1.1-3.8c-0.8-0.8-1.7-1.3-2.8-1.3c-1.1,0-2.1,0.4-2.8,1.3C297.4,95.1,297,96.3,297,98.1 M294.6,98.1
		c0-2.5,0.7-4.3,2.1-5.5c1.1-1,2.5-1.5,4.2-1.5c1.8,0,3.3,0.6,4.5,1.8c1.2,1.2,1.7,2.9,1.7,5c0,1.7-0.3,3.1-0.8,4.1
		s-1.3,1.8-2.3,2.3c-1,0.5-2.1,0.8-3.2,0.8c-1.9,0-3.4-0.6-4.5-1.8C295.2,102,294.6,100.3,294.6,98.1z"/>
	<path fill="#043F85" d="M310.4,104.7V93.1h-2v-1.8h2v-1.4c0-0.9,0.1-1.6,0.2-2c0.2-0.6,0.6-1.1,1.2-1.4c0.5-0.4,1.3-0.5,2.3-0.5
		c0.6,0,1.3,0.1,2.1,0.2l-0.3,2c-0.5-0.1-0.9-0.1-1.3-0.1c-0.7,0-1.2,0.1-1.5,0.4c-0.3,0.3-0.4,0.8-0.4,1.6v1.2h2.6v1.8h-2.6v11.6
		H310.4z"/>
	<path fill="#043F85" d="M2.3,133.4V115H6l4.4,13.1c0.4,1.2,0.7,2.1,0.9,2.7c0.2-0.7,0.5-1.7,1-3l4.4-12.8h3.3v18.5h-2.4V118
		l-5.4,15.5H10l-5.3-15.7v15.7H2.3z"/>
	<path fill="#043F85" d="M32.1,126.7c-0.8,0.3-2.1,0.6-3.7,0.9c-0.9,0.1-1.6,0.3-2,0.5c-0.4,0.2-0.7,0.4-0.9,0.7
		c-0.2,0.3-0.3,0.7-0.3,1.1c0,0.6,0.2,1.1,0.7,1.5c0.5,0.4,1.1,0.6,2,0.6c0.9,0,1.7-0.2,2.3-0.6c0.7-0.4,1.2-0.9,1.5-1.6
		c0.2-0.5,0.4-1.3,0.4-2.3V126.7z M32.3,131.8c-0.8,0.7-1.7,1.2-2.4,1.5c-0.8,0.3-1.6,0.4-2.5,0.4c-1.5,0-2.6-0.4-3.4-1.1
		c-0.8-0.7-1.2-1.6-1.2-2.7c0-0.7,0.1-1.3,0.4-1.8c0.3-0.5,0.7-1,1.2-1.3c0.5-0.3,1-0.6,1.6-0.7c0.4-0.1,1.1-0.2,2-0.3
		c1.8-0.2,3.2-0.5,4-0.8c0-0.3,0-0.5,0-0.6c0-0.9-0.2-1.6-0.6-1.9c-0.6-0.5-1.4-0.8-2.6-0.8c-1.1,0-1.9,0.2-2.4,0.6
		c-0.5,0.4-0.9,1-1.1,2l-2.2-0.3c0.2-0.9,0.5-1.7,1-2.3c0.5-0.6,1.1-1,2-1.3c0.9-0.3,1.9-0.5,3-0.5c1.1,0,2.1,0.1,2.8,0.4
		c0.7,0.3,1.2,0.6,1.6,1c0.3,0.4,0.6,0.9,0.7,1.5c0.1,0.4,0.1,1.1,0.1,2.1v3c0,2.1,0,3.4,0.1,4c0.1,0.6,0.3,1.1,0.6,1.6h-2.4
		C32.5,133,32.4,132.4,32.3,131.8z"/>
	<path fill="#043F85" d="M37.9,133.4v-13.4h2v1.9c1-1.5,2.4-2.2,4.3-2.2c0.8,0,1.5,0.2,2.2,0.4c0.7,0.3,1.2,0.7,1.5,1.1
		c0.3,0.5,0.6,1,0.7,1.7c0.1,0.4,0.1,1.2,0.1,2.2v8.2h-2.3v-8.1c0-0.9-0.1-1.6-0.3-2.1c-0.2-0.5-0.5-0.8-0.9-1.1
		c-0.5-0.3-1-0.4-1.6-0.4c-1,0-1.8,0.3-2.5,0.9c-0.7,0.6-1,1.8-1,3.5v7.3H37.9z"/>
	<path fill="#043F85" d="M60.8,126.7c-0.8,0.3-2.1,0.6-3.7,0.9c-0.9,0.1-1.6,0.3-2,0.5c-0.4,0.2-0.7,0.4-0.9,0.7
		c-0.2,0.3-0.3,0.7-0.3,1.1c0,0.6,0.2,1.1,0.7,1.5c0.5,0.4,1.1,0.6,2,0.6c0.9,0,1.7-0.2,2.3-0.6c0.7-0.4,1.2-0.9,1.5-1.6
		c0.2-0.5,0.4-1.3,0.4-2.3V126.7z M61,131.8c-0.8,0.7-1.7,1.2-2.4,1.5c-0.8,0.3-1.6,0.4-2.5,0.4c-1.5,0-2.6-0.4-3.4-1.1
		c-0.8-0.7-1.2-1.6-1.2-2.7c0-0.7,0.1-1.3,0.4-1.8c0.3-0.5,0.7-1,1.2-1.3c0.5-0.3,1-0.6,1.6-0.7c0.4-0.1,1.1-0.2,2-0.3
		c1.8-0.2,3.2-0.5,4-0.8c0-0.3,0-0.5,0-0.6c0-0.9-0.2-1.6-0.6-1.9c-0.6-0.5-1.4-0.8-2.6-0.8c-1.1,0-1.9,0.2-2.4,0.6
		c-0.5,0.4-0.9,1-1.1,2l-2.2-0.3c0.2-0.9,0.5-1.7,1-2.3c0.5-0.6,1.1-1,2-1.3c0.9-0.3,1.9-0.5,3-0.5c1.1,0,2.1,0.1,2.8,0.4
		c0.7,0.3,1.2,0.6,1.6,1c0.3,0.4,0.6,0.9,0.7,1.5c0.1,0.4,0.1,1.1,0.1,2.1v3c0,2.1,0,3.4,0.1,4c0.1,0.6,0.3,1.1,0.6,1.6h-2.4
		C61.2,133,61,132.4,61,131.8z"/>
	<path fill="#043F85" d="M68,126.5c0,1.8,0.3,3,1,3.8c0.7,0.8,1.6,1.2,2.6,1.2c1,0,1.9-0.4,2.6-1.2c0.7-0.8,1.1-2.1,1.1-3.8
		c0-1.6-0.4-2.9-1.1-3.7c-0.7-0.8-1.6-1.2-2.6-1.2c-1,0-1.9,0.4-2.6,1.2C68.4,123.7,68,124.9,68,126.5 M66.2,134.5l2.2,0.3
		c0.1,0.7,0.3,1.2,0.8,1.5c0.6,0.4,1.3,0.6,2.3,0.6c1.1,0,1.9-0.2,2.4-0.6c0.6-0.4,1-1,1.2-1.8c0.1-0.5,0.2-1.4,0.2-2.9
		c-1,1.2-2.2,1.7-3.7,1.7c-1.8,0-3.3-0.7-4.3-2c-1-1.3-1.5-2.9-1.5-4.8c0-1.3,0.2-2.5,0.7-3.5c0.5-1.1,1.1-1.9,2-2.5
		c0.9-0.6,1.9-0.9,3.1-0.9c1.6,0,2.9,0.6,3.9,1.9v-1.6h2.1v11.6c0,2.1-0.2,3.6-0.6,4.4c-0.4,0.9-1.1,1.6-2,2.1
		c-0.9,0.5-2.1,0.8-3.4,0.8c-1.6,0-2.9-0.4-3.9-1.1S66.1,136,66.2,134.5z"/>
	<path fill="#043F85" d="M82.6,125.4h7.5c-0.1-1.1-0.4-2-0.9-2.5c-0.7-0.9-1.7-1.3-2.8-1.3c-1,0-1.9,0.3-2.6,1
		C83.1,123.4,82.7,124.3,82.6,125.4 M90.1,129.1l2.3,0.3c-0.4,1.4-1,2.4-2,3.2c-1,0.8-2.3,1.1-3.8,1.1c-2,0-3.5-0.6-4.7-1.8
		c-1.1-1.2-1.7-2.9-1.7-5.1c0-2.2,0.6-4,1.7-5.2c1.2-1.2,2.7-1.9,4.5-1.9c1.8,0,3.3,0.6,4.4,1.8c1.1,1.2,1.7,2.9,1.7,5.1
		c0,0.1,0,0.3,0,0.6h-10c0.1,1.5,0.5,2.6,1.2,3.4c0.7,0.8,1.7,1.2,2.8,1.2c0.8,0,1.5-0.2,2.1-0.7C89.3,130.8,89.7,130.1,90.1,129.1z
		"/>
	<path fill="#043F85" d="M95.3,133.4v-13.4h2v1.9c0.4-0.7,1-1.2,1.7-1.6c0.7-0.4,1.5-0.6,2.4-0.6c1,0,1.8,0.2,2.4,0.6
		c0.6,0.4,1.1,1,1.3,1.7c1.1-1.6,2.4-2.3,4.1-2.3c1.3,0,2.4,0.4,3.1,1.1c0.7,0.7,1.1,1.9,1.1,3.4v9.2h-2.3V125c0-0.9-0.1-1.6-0.2-2
		c-0.2-0.4-0.4-0.7-0.8-1c-0.4-0.2-0.8-0.4-1.4-0.4c-0.9,0-1.7,0.3-2.3,0.9c-0.6,0.6-0.9,1.6-0.9,3v7.8h-2.3v-8.7
		c0-1-0.2-1.8-0.6-2.3c-0.4-0.5-1-0.8-1.8-0.8c-0.6,0-1.2,0.2-1.8,0.5c-0.5,0.3-0.9,0.8-1.2,1.5c-0.2,0.7-0.4,1.6-0.4,2.8v6.9H95.3z
		"/>
	<path fill="#043F85" d="M118.5,125.4h7.5c-0.1-1.1-0.4-2-0.9-2.5c-0.7-0.9-1.7-1.3-2.8-1.3c-1,0-1.9,0.3-2.6,1
		C118.9,123.4,118.6,124.3,118.5,125.4 M125.9,129.1l2.3,0.3c-0.4,1.4-1.1,2.4-2.1,3.2c-1,0.8-2.3,1.1-3.8,1.1c-2,0-3.5-0.6-4.6-1.8
		c-1.1-1.2-1.7-2.9-1.7-5.1c0-2.2,0.6-4,1.7-5.2c1.2-1.2,2.7-1.9,4.5-1.9c1.8,0,3.3,0.6,4.4,1.8c1.1,1.2,1.7,2.9,1.7,5.1
		c0,0.1,0,0.3,0,0.6h-10c0.1,1.5,0.5,2.6,1.2,3.4c0.7,0.8,1.7,1.2,2.8,1.2c0.8,0,1.5-0.2,2.1-0.7
		C125.1,130.8,125.6,130.1,125.9,129.1z"/>
	<path fill="#043F85" d="M131.1,133.4v-13.4h2v1.9c1-1.5,2.4-2.2,4.3-2.2c0.8,0,1.5,0.2,2.2,0.4c0.7,0.3,1.2,0.7,1.5,1.1
		c0.3,0.5,0.6,1,0.7,1.7c0.1,0.4,0.1,1.2,0.1,2.2v8.2h-2.3v-8.1c0-0.9-0.1-1.6-0.3-2.1c-0.2-0.5-0.5-0.8-0.9-1.1
		c-0.4-0.3-1-0.4-1.6-0.4c-1,0-1.8,0.3-2.5,0.9c-0.7,0.6-1,1.8-1,3.5v7.3H131.1z"/>
	<path fill="#043F85" d="M150.4,131.4l0.3,2c-0.6,0.1-1.2,0.2-1.7,0.2c-0.8,0-1.5-0.1-1.9-0.4c-0.5-0.3-0.8-0.6-1-1
		c-0.2-0.4-0.3-1.3-0.3-2.7v-7.7h-1.7v-1.8h1.7v-3.3l2.3-1.4v4.7h2.3v1.8h-2.3v7.8c0,0.7,0,1.1,0.1,1.2c0.1,0.2,0.2,0.3,0.4,0.4
		c0.2,0.1,0.4,0.2,0.8,0.2C149.7,131.5,150,131.5,150.4,131.4"/>
	<polygon fill="#043F85" points="160.1,133.4 160.1,115 173.5,115 173.5,117.1 162.6,117.1 162.6,122.8 172.8,122.8 172.8,125 
		162.6,125 162.6,131.2 173.9,131.2 173.9,133.4 	"/>
	<path fill="#043F85" d="M178.5,126.7c0,1.7,0.4,3,1.1,3.8c0.7,0.9,1.6,1.3,2.6,1.3c1,0,1.8-0.4,2.5-1.2c0.7-0.8,1-2,1-3.7
		c0-1.8-0.4-3.2-1.1-4c-0.7-0.9-1.6-1.3-2.6-1.3c-1,0-1.9,0.4-2.5,1.2C178.8,123.7,178.5,125,178.5,126.7 M185.7,133.4v-1.7
		c-0.8,1.3-2.1,2-3.7,2c-1.1,0-2-0.3-2.9-0.9c-0.9-0.6-1.6-1.4-2.1-2.5c-0.5-1.1-0.7-2.3-0.7-3.6c0-1.3,0.2-2.5,0.7-3.6
		c0.4-1.1,1.1-1.9,2-2.5c0.9-0.6,1.9-0.9,3-0.9c0.8,0,1.5,0.2,2.2,0.5c0.6,0.3,1.1,0.8,1.5,1.3V115h2.2v18.5H185.7z"/>
	<path fill="#043F85" d="M200.1,133.4v-2c-1,1.5-2.5,2.3-4.2,2.3c-0.8,0-1.5-0.2-2.2-0.5c-0.7-0.3-1.2-0.7-1.5-1.1
		c-0.3-0.5-0.6-1-0.7-1.7c-0.1-0.4-0.1-1.2-0.1-2.1v-8.3h2.3v7.4c0,1.2,0,2,0.1,2.4c0.1,0.6,0.4,1.1,0.9,1.4c0.5,0.3,1,0.5,1.7,0.5
		c0.7,0,1.3-0.2,1.9-0.5c0.6-0.3,1-0.8,1.3-1.4c0.2-0.6,0.4-1.5,0.4-2.6v-7.2h2.3v13.4H200.1z"/>
	<path fill="#043F85" d="M214.4,128.5l2.2,0.3c-0.2,1.5-0.9,2.7-1.9,3.6c-1,0.9-2.2,1.3-3.7,1.3c-1.8,0-3.3-0.6-4.4-1.8
		c-1.1-1.2-1.7-2.9-1.7-5.1c0-1.4,0.2-2.7,0.7-3.8c0.5-1.1,1.2-1.9,2.2-2.4c1-0.5,2-0.8,3.2-0.8c1.5,0,2.6,0.4,3.6,1.1
		c0.9,0.7,1.5,1.8,1.8,3.1l-2.2,0.3c-0.2-0.9-0.6-1.6-1.1-2c-0.5-0.5-1.2-0.7-1.9-0.7c-1.1,0-2.1,0.4-2.8,1.2
		c-0.7,0.8-1.1,2.1-1.1,3.9c0,1.8,0.3,3.1,1,3.9c0.7,0.8,1.6,1.2,2.7,1.2c0.9,0,1.6-0.3,2.2-0.8
		C213.9,130.5,214.2,129.7,214.4,128.5"/>
	<path fill="#043F85" d="M227.1,126.7c-0.8,0.3-2.1,0.6-3.7,0.9c-0.9,0.1-1.6,0.3-2,0.5c-0.4,0.2-0.7,0.4-0.9,0.7
		c-0.2,0.3-0.3,0.7-0.3,1.1c0,0.6,0.2,1.1,0.7,1.5c0.5,0.4,1.1,0.6,2,0.6c0.9,0,1.7-0.2,2.3-0.6c0.7-0.4,1.2-0.9,1.5-1.6
		c0.2-0.5,0.4-1.3,0.4-2.3V126.7z M227.3,131.8c-0.8,0.7-1.7,1.2-2.4,1.5c-0.8,0.3-1.6,0.4-2.5,0.4c-1.5,0-2.6-0.4-3.4-1.1
		c-0.8-0.7-1.2-1.6-1.2-2.7c0-0.7,0.1-1.3,0.4-1.8c0.3-0.5,0.7-1,1.2-1.3c0.5-0.3,1-0.6,1.6-0.7c0.4-0.1,1.1-0.2,2-0.3
		c1.8-0.2,3.2-0.5,4-0.8c0-0.3,0-0.5,0-0.6c0-0.9-0.2-1.6-0.6-1.9c-0.6-0.5-1.4-0.8-2.6-0.8c-1.1,0-1.8,0.2-2.4,0.6
		c-0.5,0.4-0.9,1-1.1,2l-2.2-0.3c0.2-0.9,0.5-1.7,1-2.3c0.5-0.6,1.1-1,2-1.3c0.9-0.3,1.9-0.5,3-0.5c1.1,0,2.1,0.1,2.8,0.4
		c0.7,0.3,1.2,0.6,1.6,1c0.3,0.4,0.6,0.9,0.7,1.5c0.1,0.4,0.1,1.1,0.1,2.1v3c0,2.1,0,3.4,0.1,4c0.1,0.6,0.3,1.1,0.6,1.6h-2.4
		C227.5,133,227.4,132.4,227.3,131.8z"/>
	<path fill="#043F85" d="M237.9,131.4l0.3,2c-0.6,0.1-1.2,0.2-1.7,0.2c-0.8,0-1.5-0.1-1.9-0.4c-0.5-0.3-0.8-0.6-1-1
		c-0.2-0.4-0.3-1.3-0.3-2.7v-7.7h-1.7v-1.8h1.7v-3.3l2.3-1.4v4.7h2.3v1.8h-2.3v7.8c0,0.7,0,1.1,0.1,1.2c0.1,0.2,0.2,0.3,0.4,0.4
		c0.2,0.1,0.4,0.2,0.8,0.2C237.1,131.5,237.5,131.5,237.9,131.4"/>
	<path fill="#043F85" d="M240.1,120.1h2.3v13.4h-2.3V120.1z M240.1,115h2.3v2.6h-2.3V115z"/>
	<path fill="#043F85" d="M247.3,126.7c0,1.7,0.4,3,1.1,3.8c0.7,0.9,1.7,1.3,2.8,1.3c1.1,0,2.1-0.4,2.8-1.3c0.7-0.9,1.1-2.2,1.1-3.9
		c0-1.7-0.4-2.9-1.1-3.8c-0.8-0.9-1.7-1.3-2.8-1.3c-1.1,0-2.1,0.4-2.8,1.3C247.7,123.7,247.3,125,247.3,126.7 M245,126.7
		c0-2.5,0.7-4.3,2.1-5.5c1.1-1,2.5-1.5,4.2-1.5c1.8,0,3.3,0.6,4.5,1.8c1.2,1.2,1.7,2.9,1.7,5c0,1.7-0.3,3.1-0.8,4.1
		c-0.5,1-1.3,1.8-2.3,2.3c-1,0.5-2.1,0.8-3.2,0.8c-1.9,0-3.4-0.6-4.5-1.8C245.5,130.7,245,129,245,126.7z"/>
	<path fill="#043F85" d="M260.2,133.4v-13.4h2v1.9c1-1.5,2.4-2.2,4.3-2.2c0.8,0,1.5,0.2,2.2,0.4c0.7,0.3,1.2,0.7,1.5,1.1
		c0.3,0.5,0.6,1,0.7,1.7c0.1,0.4,0.1,1.2,0.1,2.2v8.2h-2.3v-8.1c0-0.9-0.1-1.6-0.3-2.1c-0.2-0.5-0.5-0.8-0.9-1.1
		c-0.5-0.3-1-0.4-1.6-0.4c-1,0-1.8,0.3-2.5,0.9c-0.7,0.6-1,1.8-1,3.5v7.3H260.2z"/>
	<path fill="#043F85" d="M284.4,123.7h4.8c1.6,0,2.7-0.3,3.4-0.9c0.7-0.6,1-1.4,1-2.5c0-0.8-0.2-1.4-0.6-2c-0.4-0.5-0.9-0.9-1.5-1.1
		c-0.4-0.1-1.2-0.2-2.3-0.2h-4.7V123.7z M282,133.4V115h7c1.2,0,2.2,0.1,2.8,0.2c0.9,0.2,1.7,0.4,2.3,0.9c0.6,0.4,1.1,1,1.5,1.8
		c0.4,0.8,0.6,1.6,0.6,2.5c0,1.6-0.5,2.9-1.5,4c-1,1.1-2.8,1.6-5.4,1.6h-4.7v7.5H282z"/>
	<path fill="#043F85" d="M302.6,133.4l-5.1-13.4h2.4l2.9,8c0.3,0.9,0.6,1.8,0.9,2.7c0.2-0.7,0.5-1.5,0.8-2.5l3-8.2h2.3l-5.1,13.4
		H302.6z"/>
	<path fill="#043F85" d="M316.7,131.4l0.3,2c-0.6,0.1-1.2,0.2-1.7,0.2c-0.8,0-1.5-0.1-1.9-0.4c-0.5-0.3-0.8-0.6-1-1
		c-0.2-0.4-0.3-1.3-0.3-2.7v-7.7h-1.7v-1.8h1.7v-3.3l2.3-1.4v4.7h2.3v1.8h-2.3v7.8c0,0.7,0,1.1,0.1,1.2c0.1,0.2,0.2,0.3,0.4,0.4
		c0.2,0.1,0.4,0.2,0.8,0.2C316,131.5,316.3,131.5,316.7,131.4"/>
	<rect x="319.6" y="130.8" fill="#043F85" width="2.6" height="2.6"/>
	<polygon fill="#043F85" points="333.4,133.4 333.4,115 335.9,115 335.9,131.2 345,131.2 345,133.4 	"/>
	<path fill="#043F85" d="M352.5,131.4l0.3,2c-0.6,0.1-1.2,0.2-1.7,0.2c-0.8,0-1.5-0.1-1.9-0.4c-0.5-0.3-0.8-0.6-1-1
		c-0.2-0.4-0.3-1.3-0.3-2.7v-7.7h-1.7v-1.8h1.7v-3.3l2.3-1.4v4.7h2.3v1.8h-2.3v7.8c0,0.7,0,1.1,0.1,1.2c0.1,0.2,0.2,0.3,0.4,0.4
		c0.2,0.1,0.4,0.2,0.8,0.2C351.8,131.5,352.1,131.5,352.5,131.4"/>
	<path fill="#043F85" d="M356.3,126.7c0,1.7,0.4,3,1.1,3.8c0.7,0.9,1.6,1.3,2.6,1.3c1,0,1.8-0.4,2.5-1.2c0.7-0.8,1-2,1-3.7
		c0-1.8-0.4-3.2-1.1-4c-0.7-0.9-1.6-1.3-2.6-1.3c-1,0-1.8,0.4-2.5,1.2C356.6,123.7,356.3,125,356.3,126.7 M363.4,133.4v-1.7
		c-0.8,1.3-2.1,2-3.7,2c-1.1,0-2-0.3-2.9-0.9c-0.9-0.6-1.6-1.4-2.1-2.5c-0.5-1.1-0.7-2.3-0.7-3.6c0-1.3,0.2-2.5,0.7-3.6
		c0.4-1.1,1.1-1.9,2-2.5c0.9-0.6,1.9-0.9,3-0.9c0.8,0,1.5,0.2,2.2,0.5c0.6,0.3,1.1,0.8,1.5,1.3V115h2.3v18.5H363.4z"/>
	<rect x="369.8" y="130.8" fill="#043F85" width="2.6" height="2.6"/>
	<rect x="7.2" y="40.1" fill-rule="evenodd" clip-rule="evenodd" fill="#043F85" width="8.9" height="3.2"/>
	<rect x="7.2" y="40.1" fill="none" stroke="#043F85" stroke-width="0.216" stroke-miterlimit="2.613" width="8.9" height="3.2"/>
	<rect x="34.4" y="62.1" fill-rule="evenodd" clip-rule="evenodd" fill="#043F85" width="3.1" height="9.1"/>
	<rect x="34.4" y="62.1" fill="none" stroke="#043F85" stroke-width="0.216" stroke-miterlimit="2.613" width="3.1" height="9.1"/>
	<rect x="55.9" y="40.1" fill-rule="evenodd" clip-rule="evenodd" fill="#043F85" width="8.9" height="3.2"/>
	<rect x="55.9" y="40.1" fill="none" stroke="#043F85" stroke-width="0.216" stroke-miterlimit="2.613" width="8.9" height="3.2"/>
	<path fill-rule="evenodd" clip-rule="evenodd" fill="#043F85" d="M36,9.8c17.4,0,31.5,14.2,31.5,31.5c0,17.4-14.2,31.5-31.5,31.5
		c-17.4,0-31.5-14.2-31.5-31.5C4.4,24,18.6,9.8,36,9.8z M36,5.5c19.8,0,35.9,16.1,35.9,35.9c0,19.8-16.1,35.9-35.9,35.9
		c-19.8,0-35.9-16.1-35.9-35.9C0.1,21.6,16.2,5.5,36,5.5z"/>
	<path fill="none" stroke="#043F85" stroke-width="0.216" stroke-miterlimit="2.613" d="M36,9.8c17.4,0,31.5,14.2,31.5,31.5
		c0,17.4-14.2,31.5-31.5,31.5c-17.4,0-31.5-14.2-31.5-31.5C4.4,24,18.6,9.8,36,9.8z M36,5.5c19.8,0,35.9,16.1,35.9,35.9
		c0,19.8-16.1,35.9-35.9,35.9c-19.8,0-35.9-16.1-35.9-35.9C0.1,21.6,16.2,5.5,36,5.5z"/>
	<path fill-rule="evenodd" clip-rule="evenodd" fill="#043F85" d="M36,30.5c5.9,0,10.2,5,10.3,10.6h-3.9c-0.1-3.3-2.5-6.5-6.3-6.5
		c-3.6,0-6.3,3.1-6.4,6.6l-3.9,0C25.8,35.4,30.2,30.5,36,30.5z"/>
	<path fill="none" stroke="#043F85" stroke-width="0.216" stroke-miterlimit="2.613" d="M36,30.5c5.9,0,10.2,5,10.3,10.6h-3.9
		c-0.1-3.3-2.5-6.5-6.3-6.5c-3.6,0-6.3,3.1-6.4,6.6l-3.9,0C25.8,35.4,30.2,30.5,36,30.5z"/>
	<path fill-rule="evenodd" clip-rule="evenodd" fill="#043F85" d="M56.3,36.3c-0.4,0.1-0.8,0.1-1.1-0.1c-0.4-0.2-0.6-0.5-0.7-0.9
		c-0.1-0.4-0.1-0.8,0.1-1.1c0.2-0.4,0.5-0.6,0.9-0.7c0.4-0.1,0.8-0.1,1.1,0.1c0.4,0.2,0.6,0.5,0.7,0.9c0.1,0.4,0.1,0.8-0.1,1.1
		C57,36,56.7,36.2,56.3,36.3z"/>
	<path fill="none" stroke="#043F85" stroke-width="0.216" stroke-miterlimit="2.613" d="M56.3,36.3c-0.4,0.1-0.8,0.1-1.1-0.1
		c-0.4-0.2-0.6-0.5-0.7-0.9c-0.1-0.4-0.1-0.8,0.1-1.1c0.2-0.4,0.5-0.6,0.9-0.7c0.4-0.1,0.8-0.1,1.1,0.1c0.4,0.2,0.6,0.5,0.7,0.9
		c0.1,0.4,0.1,0.8-0.1,1.1C57,36,56.7,36.2,56.3,36.3z"/>
	<path fill-rule="evenodd" clip-rule="evenodd" fill="#043F85" d="M54.4,31.2c-0.2,0.1-0.5,0.3-0.9,0.6c-0.5,0.3-0.8,0.5-0.9,0.5
		c-0.1,0-0.2,0-0.2-0.1c0,0-0.1-0.1-0.1-0.2c-0.2-0.3-0.8-1.1-1.8-2.4c-0.2-0.3-0.5-0.7-1-1.3c-0.4-0.6-0.8-1-1-1.3
		c-0.1-0.1-0.1-0.2,0-0.3c0.4-0.3,1-0.8,1.9-1.4c0.8-0.6,1.5-1.1,1.9-1.4c0.4-0.3,1.2-1,2.2-1.9c0.3-0.2,0.7-0.6,1.2-1.1l0.1-0.1
		c0.1-0.1,0.2-0.1,0.2,0c0.2,0.3,0.5,0.7,0.9,1.3c0.4,0.6,0.7,1,0.9,1.3c0.2,0.3,0.5,0.7,1,1.2c0.4,0.5,0.8,0.9,1,1.2
		c0.1,0.2,0.2,0.4,0,0.5c-0.1,0.1-0.3,0.3-0.7,0.7c-0.4,0.4-0.6,0.6-0.7,0.7c-0.1,0.1-0.1,0.1-0.2,0c0,0,0-0.1-0.1-0.1
		c-0.7-1.1-1.3-2-1.9-2.8c-0.2-0.2-0.3-0.3-0.4-0.2c-0.1,0-0.2,0.1-0.4,0.3C55.1,25,55,25.2,55,25.3c0,0.1,0,0.3,0.2,0.4
		c0,0,0.1,0.1,0.2,0.2c0.1,0.1,0.2,0.2,0.2,0.3c0.4,0.5,0.7,0.9,1.1,1.4c0,0,0.1,0.1,0.3,0.3c0.1,0.1,0.2,0.2,0.3,0.3
		c0.1,0.1,0.1,0.2,0,0.2c0.1-0.1-0.2,0.1-0.9,0.6c-0.3,0.2-0.6,0.4-0.9,0.7c-0.1,0.1-0.2,0-0.2-0.1c0,0-0.1-0.2-0.3-0.5
		c-0.1-0.2-0.5-0.7-1.1-1.5L53.2,27c-0.1-0.2-0.2-0.2-0.3-0.2c0,0-0.1,0.1-0.3,0.3c-0.3,0.2-0.4,0.4-0.5,0.5c-0.1,0.2,0,0.5,0.3,0.9
		c0,0,0.2,0.3,0.6,0.8c0.2,0.2,0.4,0.5,0.7,0.8c0.3,0.4,0.6,0.6,0.7,0.8C54.5,31,54.5,31.1,54.4,31.2z"/>
	<path fill="none" stroke="#043F85" stroke-width="0.216" stroke-miterlimit="2.613" d="M54.4,31.2c-0.2,0.1-0.5,0.3-0.9,0.6
		c-0.5,0.3-0.8,0.5-0.9,0.5c-0.1,0-0.2,0-0.2-0.1c0,0-0.1-0.1-0.1-0.2c-0.2-0.3-0.8-1.1-1.8-2.4c-0.2-0.3-0.5-0.7-1-1.3
		c-0.4-0.6-0.8-1-1-1.3c-0.1-0.1-0.1-0.2,0-0.3c0.4-0.3,1-0.8,1.9-1.4c0.8-0.6,1.5-1.1,1.9-1.4c0.4-0.3,1.2-1,2.2-1.9
		c0.3-0.2,0.7-0.6,1.2-1.1l0.1-0.1c0.1-0.1,0.2-0.1,0.2,0c0.2,0.3,0.5,0.7,0.9,1.3c0.4,0.6,0.7,1,0.9,1.3c0.2,0.3,0.5,0.7,1,1.2
		c0.4,0.5,0.8,0.9,1,1.2c0.1,0.2,0.2,0.4,0,0.5c-0.1,0.1-0.3,0.3-0.7,0.7c-0.4,0.4-0.6,0.6-0.7,0.7c-0.1,0.1-0.1,0.1-0.2,0
		c0,0,0-0.1-0.1-0.1c-0.7-1.1-1.3-2-1.9-2.8c-0.2-0.2-0.3-0.3-0.4-0.2c-0.1,0-0.2,0.1-0.4,0.3C55.1,25,55,25.2,55,25.3
		c0,0.1,0,0.3,0.2,0.4c0,0,0.1,0.1,0.2,0.2c0.1,0.1,0.2,0.2,0.2,0.3c0.4,0.5,0.7,0.9,1.1,1.4c0,0,0.1,0.1,0.3,0.3
		c0.1,0.1,0.2,0.2,0.3,0.3c0.1,0.1,0.1,0.2,0,0.2c0.1-0.1-0.2,0.1-0.9,0.6c-0.3,0.2-0.6,0.4-0.9,0.7c-0.1,0.1-0.2,0-0.2-0.1
		c0,0-0.1-0.2-0.3-0.5c-0.1-0.2-0.5-0.7-1.1-1.5L53.2,27c-0.1-0.2-0.2-0.2-0.3-0.2c0,0-0.1,0.1-0.3,0.3c-0.3,0.2-0.4,0.4-0.5,0.5
		c-0.1,0.2,0,0.5,0.3,0.9c0,0,0.2,0.3,0.6,0.8c0.2,0.2,0.4,0.5,0.7,0.8c0.3,0.4,0.6,0.6,0.7,0.8C54.5,31,54.5,31.1,54.4,31.2z"/>
	<path fill-rule="evenodd" clip-rule="evenodd" fill="#043F85" d="M47.9,23.9c-0.2,0.3-0.5,0.6-0.9,0.7c-0.4,0.1-0.8,0.1-1.1-0.1
		c-0.3-0.2-0.6-0.5-0.7-0.9c-0.1-0.4,0-0.8,0.2-1.1c0.2-0.4,0.5-0.6,0.9-0.7c0.4-0.1,0.8-0.1,1.1,0.2c0.4,0.2,0.6,0.5,0.7,0.9
		C48.1,23.2,48.1,23.6,47.9,23.9z"/>
	<path fill="none" stroke="#043F85" stroke-width="0.216" stroke-miterlimit="2.613" d="M47.9,23.9c-0.2,0.3-0.5,0.6-0.9,0.7
		c-0.4,0.1-0.8,0.1-1.1-0.1c-0.3-0.2-0.6-0.5-0.7-0.9c-0.1-0.4,0-0.8,0.2-1.1c0.2-0.4,0.5-0.6,0.9-0.7c0.4-0.1,0.8-0.1,1.1,0.2
		c0.4,0.2,0.6,0.5,0.7,0.9C48.1,23.2,48.1,23.6,47.9,23.9z"/>
	<path fill-rule="evenodd" clip-rule="evenodd" fill="#043F85" d="M43.3,22.5c0,0.1-0.1,0.2-0.2,0.2l-2.4-0.3
		c-0.1,0-0.2-0.1-0.2-0.3c0.1-0.5,0.2-1.2,0.3-2.1c0.2-0.9,0.3-1.7,0.3-2.1c0-0.1,0-0.2,0-0.2c-0.1,0-0.5,0.7-1.2,2.1
		c-0.4,0.8-0.9,1.6-1.3,2.4c-0.1,0.1-0.1,0.2-0.2,0.2c0,0-0.1,0-0.3,0c-0.2,0-0.4-0.1-0.4-0.2c-0.2-0.5-0.4-1.3-0.7-2.4
		c-0.3-1.1-0.5-1.9-0.7-2.4c0,0,0-0.1-0.1-0.1c0,0-0.1,0.1-0.1,0.2c-0.1,0.5-0.1,1.2-0.2,2.1c-0.1,0.9-0.2,1.6-0.2,2.1
		c0,0.2-0.1,0.2-0.2,0.2l-2.3-0.3c-0.1,0-0.1,0-0.2-0.1c0,0,0-0.1,0-0.2c0.1-0.5,0.2-1.3,0.4-2.3c0.2-1,0.3-1.8,0.4-2.3
		c0.1-0.5,0.2-1.6,0.3-3.1c0-0.4,0.1-1,0.2-1.7l0-0.1c0-0.1,0.1-0.1,0.3-0.1c0.3,0,0.6,0.1,1.1,0.1c0.5,0.1,0.9,0.1,1.1,0.1
		c0,0,0.1,0.1,0.2,0.3l1.4,4.8c0.1,0.3,0.2,0.5,0.3,0.5c0,0,0.2-0.2,0.4-0.5c0.6-0.9,1.5-2.3,2.6-4.2c0.1-0.2,0.2-0.3,0.3-0.2
		c0.1,0,0.3,0.1,0.6,0.1c0.3,0,0.5,0.1,0.6,0.1c0.1,0,0.3,0,0.5,0c0.2,0,0.4,0,0.5,0c0.1,0,0.2,0.1,0.2,0.2
		c-0.1,0.6-0.2,1.4-0.4,2.5c-0.2,1.1-0.3,1.9-0.4,2.5c-0.1,0.5-0.1,1.3-0.2,2.3C43.4,21.3,43.4,22,43.3,22.5z"/>
	<path fill="none" stroke="#043F85" stroke-width="0.216" stroke-miterlimit="2.613" d="M43.3,22.5c0,0.1-0.1,0.2-0.2,0.2l-2.4-0.3
		c-0.1,0-0.2-0.1-0.2-0.3c0.1-0.5,0.2-1.2,0.3-2.1c0.2-0.9,0.3-1.7,0.3-2.1c0-0.1,0-0.2,0-0.2c-0.1,0-0.5,0.7-1.2,2.1
		c-0.4,0.8-0.9,1.6-1.3,2.4c-0.1,0.1-0.1,0.2-0.2,0.2c0,0-0.1,0-0.3,0c-0.2,0-0.4-0.1-0.4-0.2c-0.2-0.5-0.4-1.3-0.7-2.4
		c-0.3-1.1-0.5-1.9-0.7-2.4c0,0,0-0.1-0.1-0.1c0,0-0.1,0.1-0.1,0.2c-0.1,0.5-0.1,1.2-0.2,2.1c-0.1,0.9-0.2,1.6-0.2,2.1
		c0,0.2-0.1,0.2-0.2,0.2l-2.3-0.3c-0.1,0-0.1,0-0.2-0.1c0,0,0-0.1,0-0.2c0.1-0.5,0.2-1.3,0.4-2.3c0.2-1,0.3-1.8,0.4-2.3
		c0.1-0.5,0.2-1.6,0.3-3.1c0-0.4,0.1-1,0.2-1.7l0-0.1c0-0.1,0.1-0.1,0.3-0.1c0.3,0,0.6,0.1,1.1,0.1c0.5,0.1,0.9,0.1,1.1,0.1
		c0,0,0.1,0.1,0.2,0.3l1.4,4.8c0.1,0.3,0.2,0.5,0.3,0.5c0,0,0.2-0.2,0.4-0.5c0.6-0.9,1.5-2.3,2.6-4.2c0.1-0.2,0.2-0.3,0.3-0.2
		c0.1,0,0.3,0.1,0.6,0.1c0.3,0,0.5,0.1,0.6,0.1c0.1,0,0.3,0,0.5,0c0.2,0,0.4,0,0.5,0c0.1,0,0.2,0.1,0.2,0.2
		c-0.1,0.6-0.2,1.4-0.4,2.5c-0.2,1.1-0.3,1.9-0.4,2.5c-0.1,0.5-0.1,1.3-0.2,2.3C43.4,21.3,43.4,22,43.3,22.5z"/>
	<path fill-rule="evenodd" clip-rule="evenodd" fill="#043F85" d="M31.1,20.9c0.1,0.4,0,0.8-0.2,1.1c-0.2,0.3-0.5,0.6-0.9,0.7
		c-0.4,0.1-0.8,0-1.1-0.2c-0.3-0.2-0.6-0.5-0.7-0.9c-0.1-0.4,0-0.8,0.2-1.1c0.2-0.3,0.5-0.6,0.9-0.7c0.4-0.1,0.8,0,1.1,0.2
		C30.8,20.2,31,20.5,31.1,20.9z"/>
	<path fill="none" stroke="#043F85" stroke-width="0.216" stroke-miterlimit="2.613" d="M31.1,20.9c0.1,0.4,0,0.8-0.2,1.1
		c-0.2,0.3-0.5,0.6-0.9,0.7c-0.4,0.1-0.8,0-1.1-0.2c-0.3-0.2-0.6-0.5-0.7-0.9c-0.1-0.4,0-0.8,0.2-1.1c0.2-0.3,0.5-0.6,0.9-0.7
		c0.4-0.1,0.8,0,1.1,0.2C30.8,20.2,31,20.5,31.1,20.9z"/>
	<path fill-rule="evenodd" clip-rule="evenodd" fill="#043F85" d="M24.7,19.3c0.3,0.5,0.7,1.2,1.2,2.2c0.5,1,0.9,1.7,1.2,2.2
		c0,0.1,0.1,0.1,0,0.2c0,0-0.1,0-0.1,0.1c-0.2,0.2-0.6,0.4-1,0.6c-0.6,0.3-1,0.5-1.2,0.6c-0.1,0-0.2,0-0.3-0.1
		c0,0.1-0.1-0.3-0.5-1.1c-0.8-1.7-1.4-2.9-1.6-3.4c-0.2-0.4-0.6-1.1-1.1-2c-0.5-0.9-0.9-1.5-1.1-2c0-0.1,0-0.2,0.1-0.2
		c0.1-0.1,0.3-0.2,0.6-0.3c0.3-0.1,0.5-0.2,0.6-0.3c0.1-0.1,0.3-0.2,0.5-0.3c0.2-0.2,0.4-0.3,0.5-0.3c0.1-0.1,0.2-0.1,0.2,0
		c0.2,0.4,0.6,1.1,1,2C24.1,18.1,24.5,18.8,24.7,19.3z"/>
	<path fill="none" stroke="#043F85" stroke-width="0.216" stroke-miterlimit="2.613" d="M24.7,19.3c0.3,0.5,0.7,1.2,1.2,2.2
		c0.5,1,0.9,1.7,1.2,2.2c0,0.1,0.1,0.1,0,0.2c0,0-0.1,0-0.1,0.1c-0.2,0.2-0.6,0.4-1,0.6c-0.6,0.3-1,0.5-1.2,0.6
		c-0.1,0-0.2,0-0.3-0.1c0,0.1-0.1-0.3-0.5-1.1c-0.8-1.7-1.4-2.9-1.6-3.4c-0.2-0.4-0.6-1.1-1.1-2c-0.5-0.9-0.9-1.5-1.1-2
		c0-0.1,0-0.2,0.1-0.2c0.1-0.1,0.3-0.2,0.6-0.3c0.3-0.1,0.5-0.2,0.6-0.3c0.1-0.1,0.3-0.2,0.5-0.3c0.2-0.2,0.4-0.3,0.5-0.3
		c0.1-0.1,0.2-0.1,0.2,0c0.2,0.4,0.6,1.1,1,2C24.1,18.1,24.5,18.8,24.7,19.3z"/>
	<path fill-rule="evenodd" clip-rule="evenodd" fill="#043F85" d="M22.8,25.9c0.3,0.3,0.4,0.6,0.4,1c0,0.4-0.1,0.8-0.4,1
		c-0.3,0.3-0.6,0.4-1,0.4c-0.4,0-0.8-0.2-1-0.5c-0.3-0.3-0.4-0.6-0.4-1c0-0.4,0.1-0.7,0.4-1c0.3-0.3,0.6-0.4,1-0.4
		C22.1,25.5,22.5,25.7,22.8,25.9z"/>
	<path fill="none" stroke="#043F85" stroke-width="0.216" stroke-miterlimit="2.613" d="M22.8,25.9c0.3,0.3,0.4,0.6,0.4,1
		c0,0.4-0.1,0.8-0.4,1c-0.3,0.3-0.6,0.4-1,0.4c-0.4,0-0.8-0.2-1-0.5c-0.3-0.3-0.4-0.6-0.4-1c0-0.4,0.1-0.7,0.4-1
		c0.3-0.3,0.6-0.4,1-0.4C22.1,25.5,22.5,25.7,22.8,25.9z"/>
	<path fill-rule="evenodd" clip-rule="evenodd" fill="#043F85" d="M13.5,26.5c0.1,0,0.1,0.1,0.1,0.2c-0.1,0.2-0.3,0.8-0.9,1.9
		c1.1,0.5,1.8,0.8,2.3,1c0.5,0.2,1.3,0.5,2.3,0.9c1,0.4,1.8,0.7,2.3,0.9c0.1,0,0.1,0.1,0.1,0.1c0,0,0,0.1,0,0.2
		c-0.1,0.3-0.2,0.7-0.4,1.2c-0.2,0.6-0.4,1-0.5,1.2c-0.1,0.1-0.2,0.1-0.3,0.1c-0.5-0.2-1.3-0.5-2.2-1c-1-0.5-1.7-0.8-2.3-1
		c-0.3-0.1-1.1-0.4-2.3-0.9c-0.3,0.9-0.5,1.6-0.7,2.2c0,0.1-0.1,0.1-0.1,0.1c-0.1,0-0.2-0.1-0.5-0.3C10.2,33,10,32.9,10,32.9
		c-0.2-0.1-0.4-0.2-0.6-0.3c-0.3-0.2-0.5-0.3-0.4-0.4c0,0,0,0,0-0.1c0.4-0.7,0.8-1.7,1.4-3.1c0.1-0.4,0.4-1.1,0.7-2.2
		c0.2-0.6,0.3-0.9,0.3-0.9c0-0.1,0.1-0.1,0.1-0.1c0,0,0.1,0,0.1,0c0.1,0,0.3,0.1,0.5,0.2c0.2,0.1,0.4,0.2,0.5,0.2
		c0.1,0,0.3,0.1,0.5,0.1C13.2,26.4,13.4,26.4,13.5,26.5z"/>
	<path fill="none" stroke="#043F85" stroke-width="0.216" stroke-miterlimit="2.613" d="M13.5,26.5c0.1,0,0.1,0.1,0.1,0.2
		c-0.1,0.2-0.3,0.8-0.9,1.9c1.1,0.5,1.8,0.8,2.3,1c0.5,0.2,1.3,0.5,2.3,0.9c1,0.4,1.8,0.7,2.3,0.9c0.1,0,0.1,0.1,0.1,0.1
		c0,0,0,0.1,0,0.2c-0.1,0.3-0.2,0.7-0.4,1.2c-0.2,0.6-0.4,1-0.5,1.2c-0.1,0.1-0.2,0.1-0.3,0.1c-0.5-0.2-1.3-0.5-2.2-1
		c-1-0.5-1.7-0.8-2.3-1c-0.3-0.1-1.1-0.4-2.3-0.9c-0.3,0.9-0.5,1.6-0.7,2.2c0,0.1-0.1,0.1-0.1,0.1c-0.1,0-0.2-0.1-0.5-0.3
		C10.2,33,10,32.9,10,32.9c-0.2-0.1-0.4-0.2-0.6-0.3c-0.3-0.2-0.5-0.3-0.4-0.4c0,0,0,0,0-0.1c0.4-0.7,0.8-1.7,1.4-3.1
		c0.1-0.4,0.4-1.1,0.7-2.2c0.2-0.6,0.3-0.9,0.3-0.9c0-0.1,0.1-0.1,0.1-0.1c0,0,0.1,0,0.1,0c0.1,0,0.3,0.1,0.5,0.2
		c0.2,0.1,0.4,0.2,0.5,0.2c0.1,0,0.3,0.1,0.5,0.1C13.2,26.4,13.4,26.4,13.5,26.5z"/>
	<path fill-rule="evenodd" clip-rule="evenodd" fill="#043F85" d="M36,24.9c8.9,0,16.1,7.4,16.1,16.5c0,9.1-7.2,16.5-16.1,16.5
		c-8.9,0-16.1-7.4-16.1-16.5C19.9,32.3,27.1,24.9,36,24.9z M36,28.4c7,0,12.6,5.8,12.6,13s-5.7,13-12.6,13c-7,0-12.7-5.8-12.7-13
		S29,28.4,36,28.4z"/>
	<path fill="none" stroke="#043F85" stroke-width="0.216" stroke-miterlimit="2.613" d="M36,24.9c8.9,0,16.1,7.4,16.1,16.5
		c0,9.1-7.2,16.5-16.1,16.5c-8.9,0-16.1-7.4-16.1-16.5C19.9,32.3,27.1,24.9,36,24.9z M36,28.4c7,0,12.6,5.8,12.6,13s-5.7,13-12.6,13
		c-7,0-12.7-5.8-12.7-13S29,28.4,36,28.4z"/>
	<polygon fill-rule="evenodd" clip-rule="evenodd" fill="#043F85" points="36,51.6 32.9,34.5 39.1,34.5 	"/>
	<polygon fill="none" stroke="#043F85" stroke-width="0.216" stroke-miterlimit="2.613" points="36,51.6 32.9,34.5 39.1,34.5 	"/>
	<path fill-rule="evenodd" clip-rule="evenodd" fill="#043F85" d="M362.5,60c0,1.5-0.3,4.2-0.9,8.2c-0.6,4.3-1.2,6.9-1.7,7.8
		c-0.4,0.7-1,1-1.7,1c-0.3,0-0.8-0.1-1.6-0.2c-2.6-0.3-10-0.5-22.4-0.5c-2.7,0-6.7,0-12.1-0.1c-5.3,0-9.3-0.1-12-0.1
		c-1.2,0-1.7-0.5-1.7-1.5c0-3.9,0.2-9.7,0.6-17.5c0.5-7.8,0.7-13.6,0.7-17.5c0-3.9-0.2-11.3-0.6-22.1c-0.1-2.8-0.3-6.9-0.6-12.5
		l-0.1-0.7c-0.1-0.8,0.4-1.2,1.3-1.2c2.6,0,6.5,0.1,11.7,0.2c5.2,0.1,9.1,0.2,11.7,0.2c2.5,0,6.4-0.1,11.6-0.2
		c5.2-0.1,9-0.2,11.6-0.2c1.8,0,2.9,0.7,3.2,2c0.2,0.8,0.4,3.2,0.8,7.3c0.4,4,0.6,6.5,0.6,7.4c0,0.7-0.4,1.1-1.1,1.1
		c-0.2,0-0.6,0-1.1-0.1c-9.3-0.8-17.7-1.2-25.2-1.2c-1.9,0-3,0.4-3.4,1.3c-0.2,0.4-0.3,1.7-0.3,4c0,2.4,0.4,3.9,1.1,4.7
		c0.6,0.7,1.7,1,3.4,1c0.4,0,1,0,2-0.1c1,0,1.9-0.1,2.5-0.1c4.4,0,8.9-0.1,13.4-0.4c0.4,0,1.3-0.1,2.9-0.3c1.2-0.1,2.1-0.2,2.8-0.2
		c0.8,0,1.3,0.4,1.3,1.2c0-0.7-0.3,1.9-1,8c-0.3,2.8-0.4,5.6-0.4,8.3c0,0.7-0.5,1-1.5,1l-4.7-0.5c-2-0.2-6.6-0.3-13.7-0.3h-5.6
		c-1.4,0-2.3,0.3-2.5,1c0,0.2-0.1,1.3-0.1,3.2c0,2.6,0.2,4.3,0.5,5.1c0.6,1.3,2.9,2.1,6.7,2.4c-0.1,0,2.5,0,7.7,0
		c1.9,0,4.6-0.2,8.3-0.5c3.7-0.3,6.4-0.5,8.2-0.5C362.1,58.1,362.5,58.7,362.5,60z M284.8,74.6c0,1.1-0.5,1.6-1.5,1.6h-18.6
		c-1,0-1.5-0.6-1.5-1.8c0-3.5,0.1-8.8,0.4-15.8c0.3-7,0.4-12.3,0.4-15.8c0-1-0.2-1.5-0.5-1.6c-0.4,0.2-2.7,5.6-7,16.1
		c-2.5,6.2-5.1,12.3-7.6,18.5c-0.4,0.8-0.8,1.3-1.3,1.4c-0.2,0-0.9,0.1-2.1,0.1c-1.8,0-2.9-0.4-3.3-1c-1.9-3.8-4.4-9.4-7.5-16.7
		c-3.3-7.7-5.8-13.3-7.4-16.7c-0.1-0.2-0.2-0.4-0.5-0.6c-0.2,0.3-0.4,0.8-0.4,1.5c0,3.4,0.1,8.5,0.3,15.3c0.2,6.8,0.3,11.9,0.3,15.3
		c0,1.2-0.5,1.8-1.5,1.8h-17.6c-0.7,0-1.1-0.1-1.3-0.3c-0.2-0.2-0.2-0.6-0.2-1.2c0-3.8,0.2-9.5,0.5-17.1c0.4-7.6,0.6-13.3,0.6-17.1
		c0-4-0.2-11.6-0.5-22.7c0-2.9-0.2-7.2-0.5-12.9l-0.1-0.9c0-0.7,0.7-1,2.2-1c1.9,0,4.8-0.1,8.7-0.2c3.9-0.1,6.8-0.2,8.7-0.2
		c0.4,0,0.9,0.7,1.6,2.2L243,38.3c1.1,2.3,2,3.4,2.7,3.4c0.4,0,1.2-1.3,2.5-3.9c3.5-7.3,8.8-18.3,15.7-33c0.6-1.3,1.2-2,1.9-2
		c1,0,2.6,0.1,4.6,0.2c2.1,0.1,3.6,0.2,4.7,0.2c0.9,0,2.2-0.1,4-0.3c1.8-0.2,3.1-0.3,4-0.3c1,0,1.6,0.4,1.6,1.3
		c0,4.1-0.2,10.2-0.5,18.4c-0.3,8.1-0.4,14.3-0.4,18.4c0,3.8,0.2,9.5,0.5,17C284.6,65.2,284.8,70.8,284.8,74.6z M181.5,37.7
		c0,4.1,0.1,10.3,0.3,18.5c0.2,8.2,0.3,14.4,0.3,18.5c0,0.7-0.2,1.1-0.5,1.3c-0.1,0-0.5,0.1-1.4,0.2c-2.3,0.3-5.3,0.4-9.2,0.4
		c-12.4,0-11.4,0-10.8-11.2c0.6-14.1,1-23.3,1-27.7c0-3.7-0.1-9.3-0.4-16.7c-0.3-7.4-0.4-13-0.4-16.7c0-0.8,0.4-1.1,1.2-1.1
		c1.1,0,2.7,0.1,4.9,0.1c2.2,0.1,3.8,0.2,4.9,0.2c1.1,0,2.7-0.1,4.8-0.2c2.1-0.1,3.7-0.1,4.8-0.1c1,0,1.5,0.4,1.5,1.1
		c0,3.7-0.2,9.3-0.6,16.7C181.7,28.4,181.5,34,181.5,37.7z M140.4,19c0,0.7-0.4,1-1.2,1c-1.3,0-6.6-0.3-15.8-0.8
		c-0.2,8.8-0.3,14.9-0.3,18.4c0,4.1,0.2,10.3,0.5,18.5c0.3,8.2,0.5,14.4,0.5,18.5c0,0.7-0.2,1.1-0.5,1.2c-0.1,0.1-0.6,0.2-1.5,0.3
		c-2.1,0.3-5.2,0.4-9.3,0.4c-4.5,0-7.7-0.1-9.5-0.4c-1-0.2-1.5-0.7-1.5-1.6c0-4.1,0.2-10.2,0.5-18.4c0.3-8.2,0.5-14.4,0.5-18.4
		c0-2.7-0.1-8.7-0.4-18.1c-7,0.7-12.6,1-16.8,1c-0.6,0-0.8-0.2-0.8-0.5c0-0.5,0.3-1.8,0.7-4c0.6-2.4,0.9-3.9,1-4.4
		c0.1-1.6,0.2-3.3,0.4-4.9c0.3-2.6,0.7-3.9,1.3-3.9c0.1,0,0.3,0,0.7,0.1C94.7,3.6,103.1,4,114.2,4c3.2,0,9-0.3,17.5-1
		c4.6-0.4,6.9-0.5,6.9-0.5c0.7,0,1.1,0.1,1.2,0.1c0.1,0.1,0.2,0.4,0.2,1c0,0.9,0,2.2-0.1,3.9c-0.1,1.8-0.1,3.1-0.1,3.9
		c0,0.9,0.1,2.2,0.3,3.8C140.3,16.9,140.4,18.2,140.4,19z"/>
	<path fill="none" stroke="#043F85" stroke-width="4.9177" stroke-miterlimit="2.613" d="M362.5,60c0,1.5-0.3,4.2-0.9,8.2
		c-0.6,4.3-1.2,6.9-1.7,7.8c-0.4,0.7-1,1-1.7,1c-0.3,0-0.8-0.1-1.6-0.2c-2.6-0.3-10-0.5-22.4-0.5c-2.7,0-6.7,0-12-0.1
		c-5.3,0-9.3-0.1-12-0.1c-1.2,0-1.7-0.5-1.7-1.5c0-3.9,0.2-9.7,0.6-17.5c0.5-7.8,0.7-13.6,0.7-17.5c0-3.9-0.2-11.3-0.6-22.1
		c-0.1-2.8-0.3-6.9-0.6-12.5l-0.1-0.7c-0.1-0.8,0.4-1.2,1.3-1.2c2.6,0,6.5,0.1,11.7,0.2c5.2,0.1,9.1,0.2,11.7,0.2
		c2.5,0,6.4-0.1,11.6-0.2c5.2-0.1,9-0.2,11.6-0.2c1.8,0,2.9,0.7,3.2,2c0.2,0.8,0.4,3.2,0.8,7.3c0.4,4,0.6,6.5,0.6,7.4
		c0,0.7-0.4,1.1-1.1,1.1c-0.2,0-0.6,0-1.1-0.1c-9.3-0.8-17.7-1.2-25.2-1.2c-1.9,0-3,0.4-3.4,1.3c-0.2,0.4-0.3,1.7-0.3,4
		c0,2.4,0.4,3.9,1.1,4.7c0.6,0.7,1.7,1,3.4,1c0.4,0,1,0,2-0.1c1,0,1.9-0.1,2.5-0.1c4.4,0,8.9-0.1,13.4-0.4c0.4,0,1.3-0.1,2.9-0.3
		c1.2-0.1,2.1-0.2,2.8-0.2c0.8,0,1.3,0.4,1.3,1.2c0-0.7-0.3,1.9-1,8c-0.3,2.8-0.4,5.6-0.4,8.3c0,0.7-0.5,1-1.5,1l-4.7-0.5
		c-2-0.2-6.6-0.3-13.7-0.3h-5.6c-1.4,0-2.3,0.3-2.5,1c0,0.2-0.1,1.3-0.1,3.2c0,2.6,0.2,4.3,0.5,5.1c0.6,1.3,2.9,2.1,6.7,2.4
		c-0.1,0,2.5,0,7.7,0c1.9,0,4.6-0.2,8.3-0.5c3.7-0.3,6.4-0.5,8.2-0.5C362.1,58.1,362.5,58.7,362.5,60z M284.8,74.6
		c0,1.1-0.5,1.6-1.5,1.6h-18.6c-1,0-1.5-0.6-1.5-1.8c0-3.5,0.1-8.8,0.4-15.8c0.3-7,0.4-12.3,0.4-15.8c0-1-0.2-1.5-0.5-1.6
		c-0.4,0.2-2.7,5.6-7,16.1c-2.5,6.2-5.1,12.3-7.6,18.5c-0.4,0.8-0.8,1.3-1.3,1.4c-0.2,0-0.9,0.1-2.1,0.1c-1.8,0-2.9-0.4-3.3-1
		c-1.9-3.8-4.4-9.4-7.5-16.7c-3.3-7.7-5.8-13.3-7.4-16.7c-0.1-0.2-0.2-0.4-0.5-0.6c-0.2,0.3-0.4,0.8-0.4,1.5c0,3.4,0.1,8.5,0.3,15.3
		c0.2,6.8,0.3,11.9,0.3,15.3c0,1.2-0.5,1.8-1.5,1.8h-17.6c-0.7,0-1.1-0.1-1.3-0.3c-0.2-0.2-0.2-0.6-0.2-1.2c0-3.8,0.2-9.5,0.5-17.1
		c0.4-7.6,0.6-13.3,0.6-17.1c0-4-0.2-11.6-0.5-22.7c0-2.9-0.2-7.2-0.5-12.9l-0.1-0.9c0-0.7,0.7-1,2.2-1c1.9,0,4.8-0.1,8.7-0.2
		c3.9-0.1,6.8-0.2,8.7-0.2c0.4,0,0.9,0.7,1.6,2.2L243,38.3c1.1,2.3,2,3.4,2.7,3.4c0.4,0,1.2-1.3,2.5-3.9c3.5-7.3,8.8-18.3,15.7-33
		c0.6-1.3,1.2-2,1.9-2c1,0,2.6,0.1,4.6,0.2c2.1,0.1,3.6,0.2,4.7,0.2c0.9,0,2.2-0.1,4-0.3c1.8-0.2,3.1-0.3,4-0.3c1,0,1.6,0.4,1.6,1.3
		c0,4.1-0.2,10.2-0.5,18.4c-0.3,8.1-0.4,14.3-0.4,18.4c0,3.8,0.2,9.5,0.5,17C284.6,65.2,284.8,70.8,284.8,74.6z M181.5,37.7
		c0,4.1,0.1,10.3,0.3,18.5c0.2,8.2,0.3,14.4,0.3,18.5c0,0.7-0.2,1.1-0.5,1.3c-0.1,0-0.5,0.1-1.4,0.2c-2.3,0.3-5.3,0.4-9.2,0.4
		c-12.4,0-11.4,0-10.8-11.2c0.6-14.1,1-23.3,1-27.7c0-3.7-0.1-9.3-0.4-16.7c-0.3-7.4-0.4-13-0.4-16.7c0-0.8,0.4-1.1,1.2-1.1
		c1.1,0,2.7,0.1,4.9,0.1c2.2,0.1,3.8,0.2,4.9,0.2c1.1,0,2.7-0.1,4.8-0.2c2.1-0.1,3.7-0.1,4.8-0.1c1,0,1.5,0.4,1.5,1.1
		c0,3.7-0.2,9.3-0.6,16.7C181.7,28.4,181.5,34,181.5,37.7z M140.4,19c0,0.7-0.4,1-1.2,1c-1.3,0-6.6-0.3-15.8-0.8
		c-0.2,8.8-0.3,14.9-0.3,18.4c0,4.1,0.2,10.3,0.5,18.5c0.3,8.2,0.5,14.4,0.5,18.5c0,0.7-0.2,1.1-0.5,1.2c-0.1,0.1-0.6,0.2-1.5,0.3
		c-2.1,0.3-5.2,0.4-9.3,0.4c-4.5,0-7.7-0.1-9.5-0.4c-1-0.2-1.5-0.7-1.5-1.6c0-4.1,0.2-10.2,0.5-18.4c0.3-8.2,0.5-14.4,0.5-18.4
		c0-2.7-0.1-8.7-0.4-18.1c-7,0.7-12.6,1-16.8,1c-0.6,0-0.8-0.2-0.8-0.5c0-0.5,0.3-1.8,0.7-4c0.6-2.4,0.9-3.9,1-4.4
		c0.1-1.6,0.2-3.3,0.4-4.9c0.3-2.6,0.7-3.9,1.3-3.9c0.1,0,0.3,0,0.7,0.1C94.7,3.6,103.1,4,114.2,4c3.2,0,9-0.3,17.5-1
		c4.6-0.4,6.9-0.5,6.9-0.5c0.7,0,1.1,0.1,1.2,0.1c0.1,0.1,0.2,0.4,0.2,1c0,0.9,0,2.2-0.1,3.9c-0.1,1.8-0.1,3.1-0.1,3.9
		c0,0.9,0.1,2.2,0.3,3.8C140.3,16.9,140.4,18.2,140.4,19z"/>
	<path fill-rule="evenodd" clip-rule="evenodd" fill="#043F85" d="M143.7,73.9c0,0.9-0.3,1.7-1,2.3c-0.6,0.6-1.4,1-2.4,1
		c-0.9,0-1.7-0.3-2.3-1c-0.6-0.6-1-1.4-1-2.3c0-0.9,0.3-1.7,1-2.3c0.6-0.6,1.4-1,2.3-1c0.9,0,1.7,0.3,2.4,1
		C143.4,72.2,143.7,73,143.7,73.9z"/>
	<path fill="none" stroke="#043F85" stroke-width="5.7159" stroke-miterlimit="2.613" d="M143.7,73.9c0,0.9-0.3,1.7-1,2.3
		c-0.6,0.6-1.4,1-2.4,1c-0.9,0-1.7-0.3-2.3-1c-0.6-0.6-1-1.4-1-2.3c0-0.9,0.3-1.7,1-2.3c0.6-0.6,1.4-1,2.3-1c0.9,0,1.7,0.3,2.4,1
		C143.4,72.2,143.7,73,143.7,73.9z"/>
	<path fill-rule="evenodd" clip-rule="evenodd" fill="#043F85" d="M195,73.9c0,0.9-0.3,1.7-1,2.3c-0.6,0.6-1.4,1-2.4,1
		c-0.9,0-1.7-0.3-2.3-1c-0.6-0.6-1-1.4-1-2.3c0-0.9,0.3-1.7,1-2.3c0.6-0.6,1.4-1,2.3-1c0.9,0,1.7,0.3,2.4,1
		C194.7,72.2,195,73,195,73.9z"/>
	<path fill="none" stroke="#043F85" stroke-width="5.7159" stroke-miterlimit="2.613" d="M195,73.9c0,0.9-0.3,1.7-1,2.3
		c-0.6,0.6-1.4,1-2.4,1c-0.9,0-1.7-0.3-2.3-1c-0.6-0.6-1-1.4-1-2.3c0-0.9,0.3-1.7,1-2.3c0.6-0.6,1.4-1,2.3-1c0.9,0,1.7,0.3,2.4,1
		C194.7,72.2,195,73,195,73.9z"/>
	<path fill-rule="evenodd" clip-rule="evenodd" fill="#043F85" d="M297.4,73.9c0,0.9-0.3,1.7-1,2.3c-0.6,0.6-1.4,1-2.4,1
		c-0.9,0-1.7-0.3-2.3-1c-0.6-0.7-1-1.4-1-2.3c0-0.9,0.3-1.7,1-2.3c0.6-0.6,1.4-1,2.3-1c0.9,0,1.7,0.3,2.4,1
		C297.1,72.2,297.4,73,297.4,73.9z"/>
	<path fill="none" stroke="#043F85" stroke-width="5.7159" stroke-miterlimit="2.613" d="M297.4,73.9c0,0.9-0.3,1.7-1,2.3
		c-0.6,0.6-1.4,1-2.4,1c-0.9,0-1.7-0.3-2.3-1c-0.6-0.7-1-1.4-1-2.3c0-0.9,0.3-1.7,1-2.3c0.6-0.6,1.4-1,2.3-1c0.9,0,1.7,0.3,2.4,1
		C297.1,72.2,297.4,73,297.4,73.9z"/>
	<path fill-rule="evenodd" clip-rule="evenodd" fill="#043F85" d="M374.7,73.9c0,0.9-0.3,1.7-1,2.4c-0.6,0.6-1.4,1-2.4,1
		c-0.9,0-1.7-0.3-2.3-1c-0.6-0.7-1-1.4-1-2.3c0-0.9,0.3-1.7,1-2.3c0.6-0.7,1.4-1,2.3-1c0.9,0,1.7,0.3,2.4,1
		C374.3,72.2,374.7,73,374.7,73.9z"/>
	<path fill="none" stroke="#043F85" stroke-width="5.7159" stroke-miterlimit="2.613" d="M374.7,73.9c0,0.9-0.3,1.7-1,2.4
		c-0.6,0.6-1.4,1-2.4,1c-0.9,0-1.7-0.3-2.3-1c-0.6-0.7-1-1.4-1-2.3c0-0.9,0.3-1.7,1-2.3c0.6-0.7,1.4-1,2.3-1c0.9,0,1.7,0.3,2.4,1
		C374.3,72.2,374.7,73,374.7,73.9z"/>
</g>
</svg>
