<?xml version="1.0" encoding="utf-8"?>
<!-- Generator: Adobe Illustrator 16.0.0, SVG Export Plug-In . SVG Version: 6.00 Build 0)  -->
<!DOCTYPE svg PUBLIC "-//W3C//DTD SVG 1.1//EN" "http://www.w3.org/Graphics/SVG/1.1/DTD/svg11.dtd">
<svg version="1.1" id="Layer_1" xmlns="http://www.w3.org/2000/svg" xmlns:xlink="http://www.w3.org/1999/xlink" x="0px" y="0px"
	 width="281.711px" height="238.568px" viewBox="0 0 281.711 238.568" enable-background="new 0 0 281.711 238.568"
	 xml:space="preserve">
<g>
	<defs>
		<rect id="SVGID_1_" width="281.711" height="238.568"/>
	</defs>
	<clipPath id="SVGID_2_">
		<use xlink:href="#SVGID_1_"  overflow="visible"/>
	</clipPath>
	<path clip-path="url(#SVGID_2_)" fill="#db2d2e" d="M0.103,143.053c0-18.77-0.269-37.542,0.062-56.306
		c0.508-28.754,12.207-52.162,35.182-69.513C50.418,5.852,67.643,0.117,86.628,0.025c3.754-0.019,7.509-0.047,11.262,0.007
		c6.667,0.095,11.733,5.185,11.783,11.884c0.053,7.03,0.049,14.06,0.001,21.089c-0.047,6.88-5.211,11.907-12.089,12.073
		c-6.263,0.151-12.652-0.232-18.758,0.876C59.732,49.418,45.851,66.03,45.166,85.429c-0.084,2.386-0.077,4.778-0.029,7.166
		c0.171,8.429,6.621,14.84,15.064,14.872c12.626,0.048,25.253-0.041,37.878,0.026c15.077,0.081,28.162,10.034,31.906,24.364
		c0.749,2.869,1.093,5.923,1.105,8.894c0.091,21.498,0.075,42.997,0.041,64.495c-0.029,18.691-14.326,33.156-33.015,33.245
		c-21.703,0.103-43.408,0.106-65.111-0.004C14.593,238.393,0.197,223.922,0.122,205.5C0.037,184.686,0.102,163.869,0.103,143.053"/>
	<path clip-path="url(#SVGID_2_)" fill="#db2d2e" d="M150.674,144.513c0-19.45-0.334-38.907,0.078-58.349
		c0.629-29.679,13.197-53.395,37.419-70.573c14.687-10.416,31.266-15.573,49.357-15.572c3.616,0,7.233-0.04,10.85,0.01
		c6.714,0.092,11.728,5.137,11.765,11.86c0.038,7.098,0.043,14.196-0.003,21.293c-0.043,6.672-5.122,11.723-11.806,11.875
		c-5.725,0.13-11.502-0.145-17.164,0.528c-18.685,2.22-34.373,19.324-35.36,38.185c-0.156,2.996-0.14,6.005-0.086,9.006
		c0.148,8.234,6.52,14.628,14.773,14.679c12.693,0.078,25.388-0.028,38.081,0.038c16.292,0.085,29.718,11.357,32.578,27.337
		c0.395,2.202,0.519,4.479,0.522,6.722c0.038,21.087,0.04,42.175,0.018,63.263c-0.02,19.281-14.346,33.646-33.654,33.689
		c-21.293,0.048-42.586,0.053-63.879,0c-19.133-0.049-33.361-14.283-33.498-33.389c-0.001-0.204-0.003-0.408-0.003-0.613v-59.989
		H150.674z"/>
</g>
</svg>
